# xmcd
#
# Track frame offsets: 
#        150
#        1100
#        14384
#        21772
#        24445
#        28187
#        35614
#        41913
#        50350
#        57181
#        64585
#        70670
#        78512
#        87158
#        91763
#        97535
#        102861
#        110908
#        119862
#        128391
#        134355
#        138417
#        143305
#        149172
#        154902
#        160531
#        166815
#        171380
#        177134
#        183702
#        191172
#
# Disc length: 2620 seconds
#
# Revision: 5
# Processed by: cddbd v1.5.2PL0 Copyright (c) Steve Scherf et al.
# Submitted via: ExactAudioCopy v0.99pb4
#
DISCID=9f0a3a1f
DTITLE=J Dilla - Donuts
DYEAR=2006
DGENRE=Hip-Hop
TTITLE0=Donuts (Outro)
TTITLE1=Workinonit
TTITLE2=Waves
TTITLE3=Light My Fire
TTITLE4=The New
TTITLE5=Stop
TTITLE6=People
TTITLE7=The Diff'rence
TTITLE8=Mash
TTITLE9=Time: The Donut of the Heart
TTITLE10=Glazed
TTITLE11=Airworks
TTITLE12=Lightworks
TTITLE13=Stepson of the Clapper
TTITLE14=The Twister (Huh, What)
TTITLE15=One Eleven
TTITLE16=Two Can Win
TTITLE17=Don't Cry
TTITLE18=Anti-American Graffiti
TTITLE19=Geek Down
TTITLE20=Thunder
TTITLE21=Gobstopper
TTITLE22=One For Ghost
TTITLE23=Dilla Says Go
TTITLE24=Walkinonit
TTITLE25=The Factory
TTITLE26=U-Love
TTITLE27=Hi.
TTITLE28=Bye.
TTITLE29=Last Donut of the Night
TTITLE30=Donuts (Intro)
EXTD=
EXTT0=
EXTT1=
EXTT2=
EXTT3=
EXTT4=
EXTT5=
EXTT6=
EXTT7=
EXTT8=
EXTT9=
EXTT10=
EXTT11=
EXTT12=
EXTT13=
EXTT14=
EXTT15=
EXTT16=
EXTT17=
EXTT18=
EXTT19=
EXTT20=
EXTT21=
EXTT22=
EXTT23=
EXTT24=
EXTT25=
EXTT26=
EXTT27=
EXTT28=
EXTT29=
EXTT30=
PLAYORDER=
